<?xml version="1.0" encoding="UTF-8" standalone="no"?>
<svg
   xmlns:dc="http://purl.org/dc/elements/1.1/"
   xmlns:cc="http://creativecommons.org/ns#"
   xmlns:rdf="http://www.w3.org/1999/02/22-rdf-syntax-ns#"
   xmlns:svg="http://www.w3.org/2000/svg"
   xmlns="http://www.w3.org/2000/svg"
   id="svg8"
   version="1.1"
   viewBox="0 0 805.20398 154.63374"
   height="154.63373mm"
   width="805.20398mm">
  <defs
     id="defs2" />
  <metadata
     id="metadata5">
    <rdf:RDF>
      <cc:Work
         rdf:about="">
        <dc:format>image/svg+xml</dc:format>
        <dc:type
           rdf:resource="http://purl.org/dc/dcmitype/StillImage" />
        <dc:title></dc:title>
      </cc:Work>
    </rdf:RDF>
  </metadata>
  <g
     transform="translate(-9.1418145,-186.54157)"
     id="layer1">
    <path
       id="path55"
       d="m 168.51166,291.74596 v -27.03975 h -10.26644 -10.26643 v -4.24146 -4.24156 h 24.8226 24.82259 v 4.24156 4.24146 h -10.26643 -10.26643 v 27.03975 27.03986 h -4.28973 -4.28973 z"
       style="opacity:1;fill:#ff6505;fill-opacity:1;fill-rule:nonzero;stroke:none;stroke-width:1.84882545;stroke-linecap:square;stroke-linejoin:miter;stroke-miterlimit:4;stroke-dasharray:none;stroke-dashoffset:0;stroke-opacity:0.97989951;paint-order:normal" />
    <path
       id="path57"
       d="m 207.67864,285.81757 v -32.96829 h 4.33551 4.33553 l 0.0258,11.31897 0.0258,11.31897 1.15824,-0.48298 c 3.66127,-1.52545 6.83341,-2.14045 11.04295,-2.14093 3.26851,-5.2e-4 5.27893,0.27942 7.6543,1.06769 5.38935,1.78765 8.77289,5.81405 9.78541,11.64466 0.32945,1.89663 0.35573,3.23868 0.35676,18.19531 l 10e-4,15.01409 h -4.33277 -4.33275 l -0.0348,-15.73715 c -0.031,-14.28432 -0.0502,-15.81001 -0.20441,-16.52841 -0.91187,-4.25511 -3.42293,-5.6712 -9.74354,-5.49452 -3.71658,0.10302 -6.91809,0.68649 -10.32959,1.88129 l -1.0207,0.35677 -0.0258,17.76063 -0.0258,17.76073 h -4.3355 -4.33566 z"
       style="opacity:1;fill:#ff6505;fill-opacity:1;fill-rule:nonzero;stroke:none;stroke-width:1.89089584;stroke-linecap:square;stroke-linejoin:miter;stroke-miterlimit:4;stroke-dasharray:none;stroke-dashoffset:0;stroke-opacity:0.97989951;paint-order:normal" />
    <path
       id="path61"
       d="m 339.8406,318.6829 c -5.98063,-0.39667 -10.92506,-2.73289 -14.10733,-6.66702 -1.92312,-2.37743 -3.19782,-5.26165 -3.81559,-8.63321 -0.41665,-2.27414 -0.40249,-1.78279 -0.43082,-14.84923 -0.0258,-12.14297 -10e-4,-13.89575 0.22554,-15.64826 0.56954,-4.40219 2.24018,-8.1197 4.91164,-10.92936 2.46264,-2.58991 5.88523,-4.40694 9.77116,-5.18747 2.38194,-0.4778 3.58025,-0.5422 10.12548,-0.5422 7.20806,0 8.43776,0.0903 11.24703,0.81398 5.68764,1.4685 9.85564,5.00045 12.0679,10.22626 0.81101,1.91581 1.40662,4.5091 1.59601,6.94937 0.0978,1.26347 0.0978,25.37469 -6.9e-4,26.56653 -0.32283,3.92179 -1.39063,7.21842 -3.23065,9.97281 -3.13724,4.69622 -8.18496,7.38715 -14.82573,7.90372 -0.82441,0.0644 -12.61279,0.0903 -13.53395,0.0241 z m 14.07274,-8.56726 c 2.85555,-0.42372 4.67248,-1.22612 6.18033,-2.72876 1.52359,-1.51798 2.38783,-3.55049 2.71404,-6.38278 0.1578,-1.36844 0.16056,-25.67492 0.003,-27.01966 -0.59788,-5.1107 -3.11843,-7.99361 -7.80393,-8.92583 -1.48191,-0.29493 -2.01532,-0.31422 -8.5498,-0.31422 -5.0861,0 -6.36666,0.0138 -7.08306,0.10302 -5.52735,0.64656 -8.37597,3.41305 -9.15932,8.89544 -0.11335,0.79468 -0.12231,1.73114 -0.12231,13.76916 0,14.1093 -0.0207,13.35121 0.38278,15.16656 0.71468,3.22837 2.49757,5.44376 5.30778,6.59556 1.17461,0.4817 2.97534,0.86035 4.56815,0.96082 0.20604,0.0138 3.16619,0.0138 6.57783,0.0103 5.44559,-0.0103 6.29822,-0.0241 6.98365,-0.12886 z"
       style="opacity:1;fill:#ff6505;fill-opacity:1;fill-rule:nonzero;stroke:none;stroke-width:1.30731702;stroke-linecap:square;stroke-linejoin:miter;stroke-miterlimit:4;stroke-dasharray:none;stroke-dashoffset:0;stroke-opacity:0.97989951;paint-order:normal" />
    <path
       id="path63"
       d="m 383.61084,295.96307 v -22.80084 h 4.12394 4.1239 v 1.33726 c 0,1.24286 0.007,1.33458 0.1199,1.29992 0.0658,-0.0241 0.5583,-0.22292 1.09488,-0.45076 2.67281,-1.1334 5.835,-2.00406 8.32871,-2.29206 1.20451,-0.13919 3.30879,-0.10302 4.49883,0.0772 3.00019,0.44694 5.41149,1.56538 7.19858,3.33877 1.3905,1.37974 2.14642,2.81723 2.44958,4.65783 0.15056,0.91314 0.11059,2.91244 -0.072,3.7107 l -0.12231,0.52804 h -3.98437 c -3.76754,0 -3.98175,-0.007 -3.93623,-0.11576 0.17399,-0.43147 0.3187,-1.45668 0.28631,-2.028 -0.0823,-1.43825 -0.71144,-2.151 -2.26235,-2.56248 -0.43161,-0.11577 -0.8207,-0.15195 -1.86524,-0.1802 -2.23768,-0.0644 -3.94729,0.2305 -6.34853,1.08317 -0.60777,0.21499 -4.15205,1.69982 -5.20807,2.18101 l -0.17675,0.0772 v 17.47329 17.47314 h -4.1239 -4.12394 z"
       style="opacity:1;fill:#ff6505;fill-opacity:1;fill-rule:nonzero;stroke:none;stroke-width:1.30731702;stroke-linecap:square;stroke-linejoin:miter;stroke-miterlimit:4;stroke-dasharray:none;stroke-dashoffset:0;stroke-opacity:0.97989951;paint-order:normal" />
    <path
       id="path65"
       d="m 437.24003,319.10124 c -3.9453,-0.35291 -7.53076,-1.72997 -10.29266,-3.95256 -0.71054,-0.57187 -1.90076,-1.77159 -2.39366,-2.41299 -1.4963,-1.94723 -2.43014,-4.21079 -2.75022,-6.6665 -0.13747,-1.05485 -0.14092,-3.95026 -0.007,-4.96476 0.7296,-5.4806 4.92555,-9.51561 11.25013,-10.81873 1.85976,-0.38382 1.62261,-0.37352 10.17348,-0.40056 l 7.92404,-0.0241 -10e-4,-1.34305 c -0.002,-2.50491 -0.17089,-3.62208 -0.72088,-4.76696 -0.63161,-1.31473 -1.86554,-2.20853 -3.6864,-2.67001 -1.2779,-0.32318 -1.96333,-0.38123 -4.48702,-0.37865 -3.01173,0.003 -4.75283,0.16366 -7.8048,0.71868 -2.4533,0.44563 -5.83582,1.3836 -7.82182,2.16901 l -0.35777,0.14161 v -4.14371 -4.14368 l 0.94701,-0.35292 c 2.84824,-1.06125 6.76087,-1.8375 11.04981,-2.19351 1.78699,-0.14815 6.60639,-0.13024 7.66843,0.0241 1.364,0.20465 1.93425,0.31697 2.84645,0.55639 2.07041,0.5461 3.99543,1.44983 5.4948,2.58064 0.58024,0.43791 2.13873,2.00688 2.51145,2.52876 1.38319,1.93693 2.23369,4.31347 2.49792,6.98014 0.0555,0.5564 0.0823,5.49204 0.0965,16.98993 l 0.0172,16.20592 h -4.12518 -4.12515 v -1.30236 c 0,-1.01491 -0.0207,-1.29464 -0.0851,-1.26736 -0.0465,0.0241 -0.43791,0.20225 -0.8691,0.40701 -2.72135,1.28947 -5.89656,2.16412 -8.92948,2.45971 -1.01553,0.10301 -3.10985,0.11576 -4.02168,0.0386 z m 5.04413,-7.96414 c 2.63584,-0.35674 5.23918,-1.05354 7.83884,-2.09508 l 0.98838,-0.39671 0.0172,-5.47012 0.0172,-5.47016 h -7.49496 c -8.11502,0 -8.30624,0.007 -9.66786,0.37348 -1.77755,0.47784 -2.93848,1.31835 -3.55817,2.57526 -0.43419,0.88096 -0.4951,1.30622 -0.46082,3.22011 0.0276,1.50137 0.0438,1.69183 0.21051,2.317 0.68133,2.562 2.50577,4.16535 5.49741,4.83135 1.20717,0.26908 1.72884,0.30767 3.71494,0.28217 1.37592,-0.0138 2.10707,-0.0644 2.89696,-0.16744 z"
       style="opacity:1;fill:#ff6505;fill-opacity:1;fill-rule:nonzero;stroke:none;stroke-width:1.30731702;stroke-linecap:square;stroke-linejoin:miter;stroke-miterlimit:4;stroke-dasharray:none;stroke-dashoffset:0;stroke-opacity:0.97989951;paint-order:normal" />
    <path
       id="path67"
       d="m 471.08348,295.9323 v -22.80087 h 4.12394 4.1239 v 1.20037 c 0,0.93378 0.0207,1.19263 0.0851,1.16431 0.0465,-0.0241 0.47512,-0.20604 0.95179,-0.41345 2.29988,-1.00199 4.86574,-1.70303 7.55167,-2.06521 1.28992,-0.17399 5.13837,-0.17399 6.44149,5.2e-4 3.26755,0.4366 5.7994,1.35401 7.9525,2.88073 0.7255,0.51519 2.29171,2.07861 2.80145,2.79767 1.51781,2.14121 2.30322,4.33731 2.78819,7.79567 0.0606,0.43146 0.0875,4.63906 0.1044,16.41048 l 0.0241,15.83113 h -4.12584 -4.12586 l -6.9e-4,-15.21768 c -4.5e-4,-9.70401 -0.0241,-15.51392 -0.0696,-16.03555 -0.35264,-4.16935 -1.92643,-5.94166 -5.82559,-6.56029 -1.06359,-0.16882 -4.4784,-0.16469 -5.92771,0.007 -2.68779,0.31801 -5.24173,0.93759 -7.70508,1.87085 l -0.88613,0.33627 -0.0172,17.80025 -0.0172,17.80042 h -4.12377 -4.1238 z"
       style="opacity:1;fill:#ff6505;fill-opacity:1;fill-rule:nonzero;stroke:none;stroke-width:1.30731702;stroke-linecap:square;stroke-linejoin:miter;stroke-miterlimit:4;stroke-dasharray:none;stroke-dashoffset:0;stroke-opacity:0.97989951;paint-order:normal" />
    <path
       id="path69"
       d="m 530.21566,341.12545 c -5.68829,-0.47009 -9.5409,-2.52293 -11.38133,-6.06518 -0.47692,-0.9183 -0.93106,-2.28533 -1.12899,-3.40044 -0.11577,-0.65424 -0.15918,-1.21708 -0.18433,-2.42132 -0.031,-1.51126 5.1e-4,-1.99747 0.1926,-2.89376 l 0.0734,-0.34247 h 4.09145 c 3.48482,0 4.08604,0.0138 4.05476,0.0903 -0.11336,0.2963 -0.19364,1.61558 -0.16676,2.75129 0.0276,1.13853 0.0489,1.3342 0.20466,1.80467 0.49134,1.48834 1.53664,2.24464 3.6196,2.61902 0.5381,0.10301 1.41475,0.11576 6.29598,0.1416 6.08823,0.0241 7.74799,-0.0138 8.91625,-0.25875 2.52245,-0.52291 3.5835,-1.82427 3.85599,-4.72791 0.11853,-1.25706 0.0476,-4.9282 -0.10301,-5.45445 -0.3411,-1.18233 -0.93519,-1.76126 -2.1847,-2.12819 -0.37854,-0.11577 -1.09346,-0.12886 -9.61112,-0.15987 -10.04885,-0.0386 -9.54224,-0.0241 -11.13092,-0.44304 -3.22114,-0.85133 -5.50992,-2.88346 -6.48831,-5.75865 -0.45631,-1.34102 -0.69431,-3.28746 -0.55691,-4.55354 0.31835,-2.93159 2.03502,-5.64567 4.32063,-6.83072 l 0.44257,-0.22912 -0.41666,-0.26805 c -0.56659,-0.36449 -1.71288,-1.52972 -2.15534,-2.19055 -1.10273,-1.64714 -1.80015,-3.76917 -1.97273,-6.00196 -0.0875,-1.14111 -0.0903,-6.7237 -0.003,-8.00418 0.0372,-0.54093 0.11473,-1.26219 0.17227,-1.60194 1.09694,-6.44924 5.99262,-10.78021 13.03922,-11.53534 1.2922,-0.1392 4.27436,-0.0903 6.82765,0.12886 1.68807,0.13643 2.35421,0.14815 10.17348,0.17399 l 8.36712,0.0241 v 3.57491 3.57495 h -1.66895 -1.66899 l 0.2715,0.35805 c 0.5475,0.72126 0.96684,1.77558 1.2001,3.01624 0.11852,0.62851 0.12886,1.07803 0.12886,5.82796 0,5.52939 -0.0138,5.79496 -0.38613,7.56628 -1.15645,5.49758 -4.46014,8.74656 -10.0429,9.87686 -1.8252,0.36962 -1.85779,0.37093 -9.6793,0.41214 l -7.29353,0.0386 -0.38486,0.15573 c -0.46623,0.18812 -0.87527,0.47526 -1.07427,0.75602 -0.56515,0.79337 -0.66496,1.99206 -0.24394,2.92997 0.2212,0.49328 0.57301,0.83716 1.11562,1.09216 l 0.38306,0.17916 9.23619,0.0386 c 9.01262,0.0386 9.25769,0.0386 10.12235,0.18295 2.15134,0.35288 3.86643,1.01488 5.30116,2.04433 2.27521,1.63326 3.67125,4.00076 4.15044,7.03875 0.1261,0.80367 0.12748,6.32754 0.002,7.4299 -0.57004,4.97571 -2.57289,8.16016 -6.24183,9.92424 -1.37933,0.66331 -2.98909,1.11279 -5.01774,1.40128 -1.02584,0.14539 -1.25292,0.15056 -7.83877,0.16503 -3.73027,0.007 -7.11972,-0.0138 -7.53213,-0.0513 z m 12.95116,-41.25371 c 2.55504,-0.4199 3.6115,-1.40941 4.10636,-3.84518 0.0903,-0.44435 0.11198,-1.34487 0.13506,-5.70816 0.031,-5.54073 0.007,-6.11297 -0.29182,-7.05188 -0.37376,-1.17719 -1.03073,-1.74093 -2.36637,-2.02917 -0.51299,-0.11576 -1.06629,-0.11576 -6.49107,-0.11576 -6.35931,0 -6.53486,0.007 -7.7341,0.35291 -1.73924,0.501 -2.73007,1.55288 -3.19671,3.39592 -0.29424,1.163 -0.31629,1.57386 -0.31594,5.93033 4.4e-4,4.46903 0.0348,5.01833 0.38468,6.15263 0.5976,1.93745 1.92122,2.8152 4.54565,3.01455 0.39977,0.0241 2.93528,0.0517 5.63458,0.0386 4.17517,-0.0138 5.00954,-0.0386 5.58944,-0.12886 z"
       style="opacity:1;fill:#ff6505;fill-opacity:1;fill-rule:nonzero;stroke:none;stroke-width:1.30731702;stroke-linecap:square;stroke-linejoin:miter;stroke-miterlimit:4;stroke-dasharray:none;stroke-dashoffset:0;stroke-opacity:0.97989951;paint-order:normal" />
    <path
       id="path71"
       d="m 584.62547,319.09056 c -5.85405,-0.49972 -10.27981,-2.58233 -13.15634,-6.1909 -1.51263,-1.89738 -2.55311,-4.33366 -2.98482,-6.98889 -0.2236,-1.37527 -0.22257,-1.32273 -0.22257,-10.12183 0,-9.15457 -0.0103,-8.77282 0.29493,-10.55561 1.19445,-6.96788 5.81962,-11.05647 13.46593,-11.90393 1.31132,-0.1454 2.75253,-0.17916 6.74789,-0.15711 4.09965,0.0241 4.32405,0.0386 5.49473,0.25392 2.8061,0.52805 5.28641,1.80684 7.19327,3.70722 1.93869,1.93215 3.09621,4.23126 3.56844,7.08781 0.10164,0.61821 0.10439,0.72509 0.11852,7.79615 l 0.0172,7.16974 h -14.3409 -14.3409 v 2.18797 c 0,2.31738 0.031,2.83398 0.21844,3.77186 0.6262,3.11643 2.60435,5.03562 5.99937,5.82035 1.28783,0.29768 2.27824,0.3864 4.26562,0.38381 4.70352,-0.007 7.86867,-0.58217 13.62732,-2.4739 0.72911,-0.23945 1.33936,-0.43532 1.35618,-0.43532 0.0172,0 0.031,1.77545 0.031,3.9455 v 3.9455 l -0.71093,0.27804 c -3.25825,1.27249 -6.78413,2.05325 -10.90507,2.41464 -1.035,0.0903 -4.92107,0.13541 -5.73573,0.0644 z M 597.04679,288.523 c -0.0172,-2.51432 -0.0372,-3.16705 -0.0965,-3.46983 -0.41951,-2.12137 -1.76725,-3.42683 -4.00276,-3.87659 -0.33903,-0.0644 -0.92099,-0.0772 -4.22489,-0.10302 -4.86884,-0.0241 -6.0628,0.0241 -7.51528,0.35415 -2.45995,0.54996 -3.77692,1.78303 -4.36553,4.08873 -0.2839,1.11279 -0.32628,1.59046 -0.34981,3.96648 l -0.0207,2.13295 h 10.29962 10.29961 z"
       style="opacity:1;fill:#ff6505;fill-opacity:1;fill-rule:nonzero;stroke:none;stroke-width:0.92441273;stroke-linecap:square;stroke-linejoin:miter;stroke-miterlimit:4;stroke-dasharray:none;stroke-dashoffset:0;stroke-opacity:0.97989951;paint-order:normal" />
    <path
       id="path73"
       d="m 638.32142,287.50333 v -31.25516 l 15.04721,0.0241 c 16.1407,0.0241 15.27356,0.007 17.26173,0.35418 3.4679,0.6066 6.49362,2.13281 8.49995,4.28743 2.14707,2.30593 3.34634,5.17185 3.85409,9.21007 0.0565,0.44949 0.0851,1.62216 0.0837,3.4423 -0.002,2.53041 -0.0138,2.84301 -0.15642,3.74894 -0.52804,3.37057 -1.70306,6.26622 -3.3379,8.22624 l -0.3515,0.42113 0.28838,0.22395 c 1.0976,0.8526 1.98028,1.80918 2.78257,3.01532 1.42802,2.14689 2.20633,4.57852 2.38849,7.46263 0.10681,1.68318 0.0348,7.02779 -0.11094,8.25687 -0.53717,4.54297 -2.14018,7.84459 -4.94718,10.18905 -2.58023,2.1551 -6.00668,3.33112 -10.42441,3.57777 -0.7944,0.0386 -6.74117,0.0644 -16.06969,0.0644 h -14.80858 z m 31.83258,22.63512 c 3.53574,-0.4302 5.11284,-1.73228 5.72285,-4.72561 0.23635,-1.16172 0.28976,-2.41385 0.25737,-6.08103 -0.0276,-3.13728 -0.0424,-3.49664 -0.16779,-4.05651 -0.6293,-2.81004 -2.36675,-4.03037 -6.25554,-4.39368 -0.47705,-0.0386 -4.75993,-0.0644 -11.77531,-0.0644 l -11.02553,-1.4e-4 v 9.71341 9.71331 l 11.23001,-0.002 c 9.19205,-0.002 11.37227,-0.0241 12.01391,-0.10302 z m -0.4089,-27.73459 c 1.41461,-0.28459 2.19417,-0.66331 2.97693,-1.44714 0.4723,-0.47267 0.60932,-0.66585 0.89991,-1.26477 0.35508,-0.73283 0.54671,-1.35979 0.73604,-2.41088 0.14505,-0.80368 0.2112,-5.49194 0.0927,-6.53489 -0.46468,-4.0846 -2.17312,-5.6269 -6.61531,-5.97219 -0.49497,-0.0386 -5.0482,-0.0644 -10.88792,-0.0644 l -10.0371,-0.002 v 8.93175 8.93176 l 11.12775,-0.0241 c 10.16234,-0.0241 11.17801,-0.0386 11.70716,-0.14023 z"
       style="opacity:1;fill:#ff6505;fill-opacity:1;fill-rule:nonzero;stroke:none;stroke-width:1.30731702;stroke-linecap:square;stroke-linejoin:miter;stroke-miterlimit:4;stroke-dasharray:none;stroke-dashoffset:0;stroke-opacity:0.97989951;paint-order:normal" />
    <path
       id="path75"
       d="m 708.75049,318.68614 c -3.40399,-0.21499 -6.41103,-1.28537 -8.77227,-3.1225 -0.22533,-0.17502 -0.66741,-0.56797 -0.98232,-0.87323 -2.2525,-2.18242 -3.5898,-4.93089 -4.08076,-8.38694 -0.18192,-1.28151 -0.19846,-2.29036 -0.17917,-11.03768 0.0207,-9.18999 0.0103,-8.84907 0.30561,-10.4518 0.82555,-4.47844 3.35141,-7.96852 7.1735,-9.91252 1.5578,-0.7921 3.19847,-1.28938 5.2029,-1.57621 0.70669,-0.10301 0.90142,-0.10301 6.10425,-0.12885 5.60281,-0.0241 6.06525,-0.007 7.37447,0.18674 3.34021,0.49844 6.16375,1.85734 8.29149,3.99174 1.01864,1.02135 1.82076,2.15165 2.48252,3.49728 0.79968,1.62617 1.24234,3.19758 1.5002,5.32604 0.0696,0.57184 0.0813,1.64329 0.0992,8.86864 0.0207,8.36636 -6.2e-4,9.87352 -0.15711,11.06177 -0.51171,3.88624 -2.18162,7.04788 -4.9141,9.30386 -2.31628,1.91233 -5.38627,3.02561 -8.96504,3.25128 -0.89822,0.0513 -9.58008,0.0513 -10.48332,-0.003 z m 10.19411,-7.90296 c 0.7461,-0.0513 1.68353,-0.22808 2.24024,-0.41214 1.92932,-0.63753 3.15361,-2.05156 3.60802,-4.16766 0.2274,-1.0587 0.22499,-0.94662 0.22499,-10.28783 0,-9.29417 0.003,-9.11877 -0.21741,-10.1825 -0.51336,-2.46846 -1.99888,-3.94264 -4.47885,-4.44467 -0.94304,-0.19053 -1.3261,-0.20087 -6.65462,-0.18157 -5.00813,0.0138 -5.14612,0.0241 -5.66341,0.11576 -0.77997,0.15194 -1.33568,0.32456 -1.89721,0.59247 -1.78892,0.85005 -2.72276,2.31624 -3.05152,4.79269 -0.0517,0.38637 -0.0644,2.26201 -0.0644,9.39889 0,8.36622 0.007,8.95108 0.0875,9.47116 0.17951,1.14112 0.44832,1.9605 0.89319,2.72221 0.31181,0.53449 1.09718,1.31728 1.63701,1.63257 0.93388,0.54482 2.18562,0.88871 3.50387,0.96082 0.77897,0.0386 9.2262,0.0241 9.83266,-0.0138 z"
       style="opacity:1;fill:#ff6505;fill-opacity:1;fill-rule:nonzero;stroke:none;stroke-width:0.92441273;stroke-linecap:square;stroke-linejoin:miter;stroke-miterlimit:4;stroke-dasharray:none;stroke-dashoffset:0;stroke-opacity:0.97989951;paint-order:normal" />
    <path
       id="path77"
       d="m 738.0744,318.68022 c 0.0386,-0.0644 0.18709,-0.28838 9.12029,-13.61137 l 6.37137,-9.50207 -7.53861,-11.17537 c -4.14626,-6.14646 -7.53357,-11.18077 -7.52737,-11.18746 0.007,-0.007 2.26597,-0.0103 5.02171,-0.0103 h 5.01047 l 4.86136,7.75997 c 2.67373,4.26813 4.87445,7.75911 4.89047,7.7578 0.0172,-10e-4 2.234,-3.48798 4.92889,-7.74812 l 4.8997,-7.74557 5.0225,-0.0138 c 4.01238,-0.0103 5.01771,-1.4e-4 4.99866,0.0513 -0.0138,0.0386 -3.34804,5.08159 -7.41096,11.21851 -4.06292,6.13705 -7.38707,11.17987 -7.38704,11.2064 7e-5,0.0241 3.43024,5.20818 7.62261,11.51488 4.19239,6.30677 7.62257,11.48511 7.62257,11.50764 0,0.0241 -2.20699,0.0386 -4.90429,0.0386 l -4.90425,-0.003 -5.17916,-8.09552 c -2.84856,-4.45253 -5.19653,-8.0898 -5.21786,-8.08274 -0.0207,0.007 -2.36564,3.64592 -5.20969,8.08622 l -5.17106,8.07337 -4.97761,0.0138 c -3.98116,0.0103 -4.97064,1.4e-4 -4.9427,-0.0517 z"
       style="opacity:1;fill:#ff6505;fill-opacity:1;fill-rule:nonzero;stroke:none;stroke-width:0.92441273;stroke-linecap:square;stroke-linejoin:miter;stroke-miterlimit:4;stroke-dasharray:none;stroke-dashoffset:0;stroke-opacity:0.97989951;paint-order:normal" />
    <path
       id="path71-9"
       d="m 271.97045,319.09056 c -5.85407,-0.49972 -10.27983,-2.58233 -13.15636,-6.1909 -1.51261,-1.89738 -2.55309,-4.33366 -2.98482,-6.98889 -0.22357,-1.37527 -0.22244,-1.32273 -0.22244,-10.12183 0,-9.15457 -0.0107,-8.77282 0.29493,-10.55561 1.19444,-6.96788 5.81961,-11.05647 13.46594,-11.90393 1.31131,-0.1454 2.75253,-0.17916 6.74786,-0.15711 4.09965,0.0241 4.32408,0.0386 5.49473,0.25392 2.80612,0.52805 5.28644,1.80684 7.19328,3.70722 1.9387,1.93215 3.09623,4.23126 3.56845,7.08781 0.10174,0.61821 0.10433,0.72509 0.11849,7.79615 l 0.0169,7.16974 h -14.3409 -14.3409 v 2.18797 c 0,2.31738 0.031,2.83398 0.21844,3.77186 0.6262,3.11643 2.60433,5.03562 5.99936,5.82035 1.28781,0.29768 2.27824,0.3864 4.26561,0.38381 4.70356,-0.007 7.86869,-0.58217 13.62734,-2.4739 0.7291,-0.23945 1.33939,-0.43532 1.35619,-0.43532 0.0169,0 0.031,1.77545 0.031,3.9455 v 3.9455 l -0.71094,0.27804 c -3.25826,1.27249 -6.78413,2.05325 -10.90507,2.4145 -1.035,0.0903 -4.92107,0.13506 -5.73572,0.0644 z M 284.39176,288.523 c -0.0169,-2.51432 -0.0374,-3.16705 -0.0966,-3.46983 -0.41948,-2.12137 -1.76722,-3.42683 -4.00273,-3.87659 -0.33913,-0.0644 -0.92101,-0.0772 -4.22492,-0.10302 -4.8688,-0.0241 -6.06278,0.0241 -7.51527,0.35415 -2.45994,0.54996 -3.7769,1.78303 -4.36552,4.08873 -0.28387,1.11279 -0.32611,1.59046 -0.34981,3.96648 l -0.0207,2.13295 h 10.29961 10.29962 z"
       style="opacity:1;fill:#ff6505;fill-opacity:1;fill-rule:nonzero;stroke:none;stroke-width:0.92441273;stroke-linecap:square;stroke-linejoin:miter;stroke-miterlimit:4;stroke-dasharray:none;stroke-dashoffset:0;stroke-opacity:0.97989951;paint-order:normal" />
    <path
       id="path982"
       d="m 17.37957,318.78788 c -3.028793,-0.51905 -5.830069,-2.58374 -7.156844,-5.27566 -1.20397,-2.443 -1.103253,3.40674 -1.0567583,-61.33924 l 0.041214,-57.87309 0.3490329,-0.98914 c 1.0894714,-3.08581 3.3858994,-5.37576 6.4279584,-6.40986 l 1.054182,-0.35932 h 45.104639 45.104636 l 1.10467,0.40701 c 1.55801,0.57569 2.63021,1.26087 3.77668,2.41949 1.1464,1.15787 1.82669,2.24093 2.39578,3.81441 l 0.40351,1.11662 0.0412,57.87312 c 0.0373,52.60952 0.0193,57.97408 -0.19977,58.98176 -0.73838,3.39244 -3.31363,6.19166 -6.76928,7.35751 l -1.05418,0.35678 -44.426932,0.0241 c -24.434816,0.0103 -44.747943,-0.0386 -45.140275,-0.10301 z"
       style="opacity:1;fill:#ff6505;fill-opacity:1;fill-rule:nonzero;stroke:none;stroke-width:0.99663728;stroke-linecap:round;stroke-linejoin:round;stroke-miterlimit:4;stroke-dasharray:none;stroke-dashoffset:0;stroke-opacity:1;paint-order:normal" />
    <flowRoot
       transform="matrix(3.4076843,0,0,3.4076843,-5327.9038,6001.8279)"
       style="font-style:normal;font-variant:normal;font-weight:normal;font-stretch:normal;font-size:40px;line-height:1.25;font-family:HalfLife2;-inkscape-font-specification:HalfLife2;letter-spacing:0px;word-spacing:0px;fill:#ff6505;fill-opacity:1;stroke:none"
       id="flowRoot34"
       xml:space="preserve"><flowRegion
         style="fill:#ff6505;fill-opacity:1"
         id="flowRegion36"><rect
           style="fill:#ff6505;fill-opacity:1"
           y="1313.0029"
           x="-1769.6871"
           height="2073.9773"
           width="4868.6416"
           id="rect38" /></flowRegion><flowPara
         id="flowPara40" /></flowRoot>    <flowRoot
       transform="matrix(3.4076843,0,0,3.4076843,-5327.9038,6001.8279)"
       style="font-style:normal;font-variant:normal;font-weight:normal;font-stretch:normal;font-size:40px;line-height:1.25;font-family:HL2EP1;-inkscape-font-specification:HL2EP1;letter-spacing:0px;word-spacing:0px;fill:#ff6505;fill-opacity:1;stroke:none"
       id="flowRoot42"
       xml:space="preserve"><flowRegion
         style="fill:#ff6505;fill-opacity:1"
         id="flowRegion44"><rect
           style="fill:#ff6505;fill-opacity:1"
           y="1633.3083"
           x="-784.74811"
           height="1113.0612"
           width="3106.9619"
           id="rect46" /></flowRegion><flowPara
         id="flowPara48" /></flowRoot>    <g
       style="fill:#ff6505;fill-opacity:1"
       transform="matrix(0.12963139,0,0,0.12963139,760.99883,222.29849)"
       id="g1136">
      <path
         style="opacity:1;fill:#ff6505;fill-opacity:1;fill-rule:nonzero;stroke:none;stroke-width:0.10889444;stroke-linecap:round;stroke-linejoin:round;stroke-miterlimit:4;stroke-dasharray:none;stroke-dashoffset:0;stroke-opacity:0.97989951;paint-order:normal"
         d="M 236.94362,374.91812 C 190.54854,371.08444 150.33106,349.74901 121.39193,313.61777 91.779938,276.64645 80.116977,227.41029 89.691052,179.78987 100.39252,126.56189 138.43201,81.32211 189.25433,61.380776 c 25.59275,-10.041908 53.31169,-13.417878 81.17819,-9.88692 56.23621,7.125686 105.56129,44.59503 128.10826,97.316294 13.86985,32.43171 16.73955,69.26475 8.08378,103.7572 -12.28505,48.95488 -47.11205,89.72911 -93.70173,109.70271 -14.57365,6.24791 -29.57118,10.16194 -46.41919,12.11439 -5.92913,0.68711 -23.79882,1.00972 -29.56002,0.53367 z m 28.41662,-33.10125 c 29.27774,-4.09395 54.5188,-16.42304 75.0338,-36.65052 46.1768,-45.52964 51.62706,-118.42429 12.73164,-170.27982 -22.36247,-29.81378 -55.69296,-48.458047 -92.60887,-51.803205 -5.51635,-0.499865 -17.70835,-0.503137 -23.0119,-0.0062 -18.24275,1.709412 -35.34849,6.888374 -50.84728,15.394598 -31.71257,17.404867 -55.11305,47.512617 -63.78404,82.066467 -2.85162,11.36369 -3.90913,19.93785 -3.92275,31.80507 -0.0138,12.02717 0.99377,20.65137 3.68701,31.55845 11.4794,46.48941 47.99784,83.20085 94.442,94.94112 5.7318,1.44891 14.56729,2.99158 20.05086,3.50088 5.5657,0.51693 23.10604,0.18955 28.22953,-0.52687 z"
         id="path1056" />
      <path
         style="fill:#ff6505;fill-opacity:1;stroke-width:0.9447791"
         d="m 287.75772,298.20972 -36.47602,-92.44475 -53.47733,84.25917 h -33.52739 l 74.68667,-120.60481 -8.3849,-23.83585 h -29.08123 v -28.40195 h 49.78136 l 57.17895,145.40056 25.13872,-8.18936 8.37734,28.16671 z"
         id="path21" />
    </g>
    <flowRoot
       transform="matrix(3.4076843,0,0,3.4076843,-11548.284,6906.9455)"
       style="font-style:normal;font-variant:normal;font-weight:normal;font-stretch:normal;font-size:40px;line-height:1.25;font-family:HalfLife2;-inkscape-font-specification:HalfLife2;letter-spacing:0px;word-spacing:0px;fill:#ff6505;fill-opacity:1;stroke:none"
       id="flowRoot34-5"
       xml:space="preserve"><flowRegion
         style="fill:#ff6505;fill-opacity:1"
         id="flowRegion36-3"><rect
           style="fill:#ff6505;fill-opacity:1"
           y="1313.0029"
           x="-1769.6871"
           height="2073.9773"
           width="4868.6416"
           id="rect38-6" /></flowRegion><flowPara
         id="flowPara40-9" /></flowRoot>    <flowRoot
       transform="matrix(3.4076843,0,0,3.4076843,-11548.284,6906.9455)"
       style="font-style:normal;font-variant:normal;font-weight:normal;font-stretch:normal;font-size:40px;line-height:1.25;font-family:HL2EP1;-inkscape-font-specification:HL2EP1;letter-spacing:0px;word-spacing:0px;fill:#ff6505;fill-opacity:1;stroke:none"
       id="flowRoot42-7"
       xml:space="preserve"><flowRegion
         style="fill:#ff6505;fill-opacity:1"
         id="flowRegion44-0"><rect
           style="fill:#ff6505;fill-opacity:1"
           y="1633.3083"
           x="-784.74811"
           height="1113.0612"
           width="3106.9619"
           id="rect46-8" /></flowRegion><flowPara
         id="flowPara48-6" /></flowRoot>  </g>
</svg>
